<svg width="160" height="160" viewBox="0 0 160 160" fill="none" xmlns="http://www.w3.org/2000/svg">
<path d="M68.7228 4.71944L4.73883 68.7113C-1.57961 74.9506 -1.57961 85.0293 4.73883 91.2685L68.7228 155.261C74.9613 161.58 85.0388 161.58 91.2772 155.261L155.261 91.2685C161.58 85.0293 161.58 74.9506 155.261 68.7113L91.2772 4.71944C87.998 1.51978 83.999 0 80 0C76.001 0 72.002 1.51978 68.7228 4.71944ZM68.7228 4.71944L68.8974 4.89837L4.91561 68.8881L4.91449 68.8892C-1.30483 75.0306 -1.30483 84.9493 4.91448 91.0906L4.91562 91.0918L68.8996 155.084L68.9008 155.085C75.0413 161.305 84.9587 161.305 91.0993 155.085L91.1004 155.084L155.084 91.0918L155.086 91.0906C161.305 84.9493 161.305 75.0306 155.086 68.8892L155.084 68.8881L91.1026 4.89838L91.277 4.7196L91.1004 4.89621L91.1017 4.89747C87.869 1.74369 83.933 0.25 80 0.25C76.0671 0.25 72.131 1.74367 68.8984 4.89743L68.8996 4.89621L68.7228 4.71944Z" fill="white" stroke="#111111" stroke-width="0.5"/>
<path d="M55.2178 55C53.9929 55 53 55.949 53 57.1197V80.9658C53 82.1365 53.9929 83.0855 55.2178 83.0855H72.1287V108.622L81 117L89.8713 108.622V83.0855H106.782C108.007 83.0855 109 82.1365 109 80.9658V57.1197C109 55.949 108.007 55 106.782 55H55.2178Z" fill="#111111"/>
</svg>
