<svg width="160" height="160" viewBox="0 0 160 160" fill="none" xmlns="http://www.w3.org/2000/svg">
<path d="M80 0C76.001 0 72.002 1.51978 68.7229 4.71944L4.73883 68.7113C-1.57961 74.9506 -1.57961 85.0293 4.73883 91.2685L68.7229 155.261C74.9613 161.58 85.0388 161.58 91.2772 155.261L155.261 91.2685C161.58 85.0293 161.58 74.9506 155.261 68.7113L91.2772 4.71944C87.998 1.51978 83.999 0 80 0Z" fill="#111111"/>
<path d="M55.2178 55C53.9929 55 53 55.949 53 57.1197V80.9658C53 82.1365 53.9929 83.0855 55.2178 83.0855H72.1287V108.622L81 117L89.8713 108.622V83.0855H106.782C108.007 83.0855 109 82.1365 109 80.9658V57.1197C109 55.949 108.007 55 106.782 55H55.2178Z" fill="#EEEEEE"/>
</svg>
